<?xml version="1.0" encoding="utf-8"?>
<!-- Generator: Adobe Illustrator 16.0.0, SVG Export Plug-In . SVG Version: 6.00 Build 0)  -->
<!DOCTYPE svg PUBLIC "-//W3C//DTD SVG 1.0//EN" "http://www.w3.org/TR/2001/REC-SVG-20010904/DTD/svg10.dtd">
<svg version="1.0" id="Layer_1" xmlns="http://www.w3.org/2000/svg" xmlns:xlink="http://www.w3.org/1999/xlink" x="0px" y="0px"
	 width="141px" height="60px" viewBox="0 0 141 60" enable-background="new 0 0 141 60" xml:space="preserve">
<g id="Layer_2">
</g>
<g id="Layer_1_1_">
	<g>
		<path d="M57.181,43.574H82.2V18.097H57.181V43.574z M62.919,22.151h9.946c0,0,4.285-0.23,4.285,4.438
			c0,4.667-2.602,4.896-2.602,4.896s2.602,0.154,2.602,3.75s0,3.979,0,3.979h-3.443v-3.75c0,0,0-2.906-1.989-2.906
			c-1.989,0-5.432,0.076-5.432,0.076v6.656H62.92L62.919,22.151L62.919,22.151z"/>
		<path d="M73.707,27.201c0-2.448-2.602-2.065-2.602-2.065h-4.819v4.744c0,0,2.602-0.077,4.743-0.077
			C73.172,29.802,73.707,29.344,73.707,27.201z"/>
		<path d="M38.934,25.02c0,0,3.991,0,4.208,0v11.478c-0.217,0-4.208,0-4.208,0v2.906h12.089v-2.906c0,0-4.373,0-4.591,0V25.02
			c0.218,0,4.591,0,4.591,0v-2.906H38.934V25.02z"/>
		<path d="M7.144,43.574h25.019V18.097H7.144V43.574z M12.729,22.228l2.372,13.083l3.06-13.083l3.749,0.076l3.061,13.236
			l2.296-13.312h3.289l-3.519,17.138h-4.285l-2.754-12.471l-2.984,12.546h-4.208l-3.52-17.214L12.729,22.228L12.729,22.228z"/>
		<path d="M106.988,18.097v25.478h25.019V18.097H106.988z M121.678,39.52c-6.273,0-9.104,0.076-9.104,0.076V22.228h7.421
			c0,0,7.649-0.842,7.649,6.044v4.82C127.646,33.092,127.952,39.52,121.678,39.52z"/>
		<path d="M121.296,25.059h-5.203v11.476c0,0,2.831,0,5.433,0c2.601,0,2.677-3.367,2.677-3.367s0-0.535,0-4.437
			S121.296,25.059,121.296,25.059z"/>
		<polygon points="86.79,24.982 89.162,24.982 89.162,36.535 86.79,36.535 86.79,39.366 101.402,39.366 101.402,33.781 
			98.496,33.781 98.496,36.535 92.299,36.535 92.299,31.869 96.889,31.869 96.889,29.037 92.299,29.037 92.299,24.982 
			98.268,24.982 98.268,27.737 101.402,27.737 101.402,22.151 86.79,22.151 		"/>
	</g>
</g>
</svg>
