<?xml version="1.0" encoding="utf-8"?>
<!-- Generator: Adobe Illustrator 16.0.0, SVG Export Plug-In . SVG Version: 6.00 Build 0)  -->
<!DOCTYPE svg PUBLIC "-//W3C//DTD SVG 1.0//EN" "http://www.w3.org/TR/2001/REC-SVG-20010904/DTD/svg10.dtd">
<svg version="1.0" id="Layer_1" xmlns="http://www.w3.org/2000/svg" xmlns:xlink="http://www.w3.org/1999/xlink" x="0px" y="0px"
	 width="141px" height="60px" viewBox="0 0 141 60" enable-background="new 0 0 141 60" xml:space="preserve">
<g id="Layer_2">
</g>
<g>
	<g>
		<path d="M61.743,21.92c-2.429,0-4.304,1.322-5.881,3.271l0.002-0.014l1.399-11.338c-3.234,0-5.878,2.817-6.379,6.997l0,0
			l-2.462,20.245c1.867,0,3.842-0.541,4.909-1.915c0.958,1.227,2.376,2.205,4.479,2.205c5.459,0,9.211-6.344,9.211-12.298
			C67.021,23.638,64.376,21.92,61.743,21.92z M61.24,31.645c-0.565,3.33-2.416,5.573-4.208,5.573c-1.808,0-2.569-0.797-2.569-0.797
			c0.336-2.909,0.561-4.696,1.219-6.234c0.658-1.536,2.209-3.99,3.834-3.99C61.098,26.197,61.807,28.316,61.24,31.645z
			 M47.219,26.841c0-2.376-2.302-4.897-6.297-4.897c-4.485,0-9.408,3.285-10.17,9.847c-0.767,6.639,3.364,9.568,7.514,9.568
			c4.149,0,6.335-1.618,8.552-3.783c-1.917-2.413-4.386-1.291-4.854-1.057c-0.517,0.26-1.195,0.619-2.569,0.619
			c-1.609,0-3.241-0.728-3.241-3.714C46.436,32.438,47.219,29.217,47.219,26.841z M42.125,27.237c-0.069,0.734-0.366,2-5.568,2.696
			c1.097-3.896,3.188-4.184,4.156-4.184C41.617,25.749,42.196,26.452,42.125,27.237z M100.532,22.031
			c-4.403,0-8.554,3.242-9.827,8.338c-1.277,5.096,0.661,11.115,7.134,11.115c6.472,0,10.19-6.272,10.19-11.483
			C108.029,24.793,104.507,22.031,100.532,22.031z M102.314,31.493c-0.226,2.312-1.246,5.805-4.032,5.805
			c-2.798,0-2.396-4.098-2.13-6.042c0.293-2.087,1.465-5.039,3.957-5.039C102.359,26.217,102.573,28.883,102.314,31.493z
			 M84.298,13.951l-2.929,23.998l0,0c-0.357,2.947-1.262,6.324-1.262,6.324c4.539-1.162,6.367-2.638,6.896-6.863l0,0l0.008-0.062
			c0,0,0,0,0-0.002h0.004l1.961-16.062C89.475,17.169,87.164,13.951,84.298,13.951z M80.704,22.359h-3.82
			c0.054-0.569,0.16-1.462,0.353-2.122c0.306-1.042,1.082-1.957,2.457-2.083c1.32-0.119,1.916-0.823,2.057-1.563
			c0.109-0.583,0.479-2.639,0.479-2.639c-7.666-0.044-10.24,3.182-10.679,8.408c-1.25,0.001-2.466,0.566-2.632,1.886l-0.258,1.972
			h2.412l-2.107,17.331c-0.366,3.021-1.218,5.784-1.218,5.784c3.918-1.711,6.437-3.228,6.999-7.839l1.861-15.276h1.197
			c1.174,0,2.495-0.915,2.694-2.33L80.704,22.359z M24.71,27.872c0,0-2.213,6.935-2.382,7.515C22.27,34.807,20.65,22.35,20.65,22.35
			c-3.765,0-5.78,2.676-6.842,5.517c0,0-2.689,6.955-2.907,7.537c-0.014-0.545-0.415-7.465-0.415-7.465
			c-0.228-3.475-3.4-5.579-5.974-5.579l3.094,18.869c3.95-0.012,6.067-2.685,7.181-5.521c0,0,2.368-6.136,2.464-6.416
			c0.023,0.265,1.699,11.935,1.699,11.935c3.957,0,6.092-2.5,7.239-5.235l5.549-13.632C27.83,22.359,25.771,25.028,24.71,27.872z
			 M129.775,27.872c0,0-2.215,6.935-2.385,7.515c-0.062-0.58-1.679-13.037-1.679-13.037c-3.767,0-5.78,2.676-6.845,5.517
			c0,0-2.688,6.955-2.905,7.537c-0.012-0.545-0.413-7.465-0.413-7.465c-0.226-3.475-3.402-5.579-5.975-5.579l3.094,18.869
			c3.95-0.012,6.066-2.685,7.182-5.521c0,0,2.364-6.136,2.465-6.416c0.022,0.265,1.701,11.935,1.701,11.935
			c3.95,0,6.088-2.5,7.235-5.235l5.549-13.632C132.893,22.359,130.834,25.028,129.775,27.872z"/>
	</g>
</g>
</svg>
