<?xml version="1.0" encoding="utf-8"?>
<!-- Generator: Adobe Illustrator 16.0.0, SVG Export Plug-In . SVG Version: 6.00 Build 0)  -->
<!DOCTYPE svg PUBLIC "-//W3C//DTD SVG 1.0//EN" "http://www.w3.org/TR/2001/REC-SVG-20010904/DTD/svg10.dtd">
<svg version="1.0" id="Layer_1" xmlns="http://www.w3.org/2000/svg" xmlns:xlink="http://www.w3.org/1999/xlink" x="0px" y="0px"
	 width="141px" height="60px" viewBox="0 0 141 60" enable-background="new 0 0 141 60" xml:space="preserve">
<g id="Layer_2">
</g>
<g id="Layer_1_1_">
	<g>
		<path d="M83.76,22.381c-1.958,0-3.496,0.42-5.035,1.259c0-4.475,0-8.529,0.141-9.928l-9.369,1.678v0.839l0.979,0.14
			c1.259,0.279,1.679,0.978,1.958,2.657c0.279,3.355,0.14,21.253,0,24.191c2.517,0.561,5.174,0.98,7.83,0.98
			c7.412,0,11.887-4.615,11.887-11.887C92.15,26.577,88.516,22.381,83.76,22.381L83.76,22.381z M80.544,42.658
			c-0.562,0-1.259,0-1.679-0.139c-0.141-1.959-0.279-10.209-0.141-17.479c0.84-0.28,1.398-0.42,2.099-0.42
			c3.075,0,4.754,3.635,4.754,8.11C85.578,38.324,83.48,42.658,80.544,42.658L80.544,42.658z"/>
		<path d="M34.258,14.272H9.647v1.258l1.398,0.14c1.818,0.279,2.517,1.398,2.796,4.056c0.42,5.033,0.28,14.124,0,18.458
			c-0.279,2.657-0.978,3.916-2.796,4.056l-1.398,0.28v1.119h15.801V42.52l-1.678-0.28c-1.818-0.14-2.518-1.398-2.796-4.056
			c-0.141-1.818-0.28-4.754-0.28-8.39l3.356,0.14c2.098,0,3.076,1.677,3.496,4.055h1.258v-9.927h-1.258
			c-0.42,2.377-1.398,4.054-3.496,4.054l-3.356,0.139c0-4.753,0.14-9.228,0.28-11.885h4.893c3.777,0,5.734,2.376,7.132,6.572
			l1.398-0.419L34.258,14.272L34.258,14.272z"/>
		<path d="M42.229,22.103c6.992,0,10.488,4.754,10.488,11.045c0,6.015-3.916,11.049-10.908,11.049
			c-6.992,0-10.487-4.756-10.487-11.049C31.322,27.137,35.237,22.103,42.229,22.103L42.229,22.103z M41.809,23.501
			c-3.076,0-3.915,4.194-3.915,9.647c0,5.312,1.398,9.648,4.196,9.648c3.215,0,4.055-4.195,4.055-9.648
			C46.145,27.835,44.746,23.501,41.809,23.501L41.809,23.501z"/>
		<path d="M93.969,33.289c0-5.733,3.635-11.187,10.768-11.187c5.873,0,8.67,4.335,8.67,10.068H100.4
			c-0.139,5.173,2.377,8.95,7.412,8.95c2.237,0,3.355-0.562,4.754-1.538l0.56,0.697c-1.399,1.959-4.476,3.918-8.39,3.918
			C98.441,44.197,93.969,39.723,93.969,33.289L93.969,33.289z M100.4,30.634l6.572-0.141c0-2.797-0.42-6.991-2.797-6.991
			C101.799,23.501,100.54,27.416,100.4,30.634L100.4,30.634z"/>
		<path d="M130.045,23.223c-1.678-0.701-3.915-1.12-6.432-1.12c-5.174,0-8.391,3.075-8.391,6.712c0,3.636,2.377,5.173,5.734,6.292
			c3.495,1.258,4.475,2.236,4.475,3.914c0,1.68-1.259,3.218-3.496,3.218c-2.658,0-4.615-1.538-6.153-5.733l-0.979,0.28l0.139,6.153
			c1.679,0.699,4.754,1.259,7.414,1.259c5.453,0,8.949-2.798,8.949-7.132c0-2.938-1.539-4.614-5.175-6.015
			c-3.916-1.538-5.313-2.515-5.313-4.334c0-1.818,1.259-3.077,2.937-3.077c2.519,0,4.196,1.538,5.454,5.313l0.979-0.279
			L130.045,23.223L130.045,23.223z"/>
		<path d="M70.895,22.663c-2.377-1.399-6.572-0.701-8.81,4.334l0.14-4.894l-9.37,1.819v0.838l0.979,0.14
			c1.259,0.141,1.817,0.839,1.958,2.657c0.28,3.356,0.14,9.229,0,12.167c-0.14,1.676-0.699,2.516-1.958,2.655l-0.979,0.14v1.119
			H65.86V42.52l-1.678-0.14c-1.398-0.14-1.817-0.979-1.958-2.655c-0.279-2.658-0.279-7.972-0.14-11.328
			c0.699-0.979,3.776-1.819,6.572,0L70.895,22.663L70.895,22.663z"/>
	</g>
</g>
</svg>
