<?xml version="1.0" encoding="utf-8"?>
<!-- Generator: Adobe Illustrator 16.0.4, SVG Export Plug-In . SVG Version: 6.00 Build 0)  -->
<!DOCTYPE svg PUBLIC "-//W3C//DTD SVG 1.1//EN" "http://www.w3.org/Graphics/SVG/1.1/DTD/svg11.dtd">
<svg version="1.1" id="Capa_1" xmlns="http://www.w3.org/2000/svg" xmlns:xlink="http://www.w3.org/1999/xlink" x="0px" y="0px"
	 width="160px" height="160px" viewBox="0 0 160 160" enable-background="new 0 0 160 160" xml:space="preserve">
<g>
	<path fill="#f49d19" d="M158.768,102.525l-29.799-29.8c-1.33-1.334-2.895-1.652-4.693-0.934c-1.799,0.701-2.658,2.036-2.658,3.988
		v15.167c-10.715,1.888-21.172,5.906-28.469,10.162c-7.172,4.188-14.078,9.711-18.146,13.85c-4.066,4.152-7.573,8.844-8.838,10.795
		c-0.612,0.951-1.036,1.637-1.251,2.036c-1.036,1.937-0.842,3.819,0.783,5.321c1.428,1.317,3.676,1.484,5.241,0.469
		c0.312-0.316,3.045-1.971,9.229-4.688c3.045-1.354,6.426-2.638,10.09-3.839c3.687-1.218,8.14-2.317,13.218-3.202
		c5.168-0.918,10.244-1.418,15.25-1.418h2.895v14.781c0,1.805,0.859,3.139,2.658,3.988c0.627,0.23,1.176,0.314,1.645,0.314
		c1.176,0,2.188-0.398,3.053-1.252l29.799-29.646C160.414,106.98,160.408,104.16,158.768,102.525z M130.221,124.816v-8.377
		c0-2.271-1.723-4.223-3.99-4.306c-1.641-0.231-4.145-0.301-7.508-0.301c-11.184,0-22.445,1.869-33.631,5.706
		c12.124-10.244,25.893-16.398,41.451-18.537c2.115-0.281,3.678-2.035,3.678-4.305v-8.525l19.239,19.404L130.221,124.816z"/>
	<path fill="#f49d19" d="M8.681,130.055V43.243l60.378,61.702c0.851,0.867,1.877,1.25,3.05,1.25h0.157
		c1.328,0,2.356-0.383,3.205-1.25l60.224-61.702v22.909h8.603V30.095c0-5.306-4.067-9.61-9.386-9.61H9.462
		c-2.658,0-4.927,0.934-6.726,2.803C0.938,25.173,0,27.442,0,30.095v99.959c0,2.588,0.917,4.872,2.736,6.725
		c1.78,1.818,4.068,2.736,6.726,2.736h45.989v-8.677H9.462C8.915,130.84,8.681,130.605,8.681,130.055z M8.681,30.095
		c0-0.617,0.234-0.934,0.781-0.934h125.45c0.547,0,0.783,0.317,0.783,0.934v0.784L72.267,95.801L8.681,30.879V30.095z"/>
</g>
</svg>
