<?xml version="1.0" encoding="utf-8"?>
<!-- Generator: Adobe Illustrator 16.0.4, SVG Export Plug-In . SVG Version: 6.00 Build 0)  -->
<!DOCTYPE svg PUBLIC "-//W3C//DTD SVG 1.1//EN" "http://www.w3.org/Graphics/SVG/1.1/DTD/svg11.dtd">
<svg version="1.1" id="Layer_1" xmlns="http://www.w3.org/2000/svg" xmlns:xlink="http://www.w3.org/1999/xlink" x="0px" y="0px"
	 width="150px" height="150px" viewBox="0 0 150 150" enable-background="new 0 0 150 150" xml:space="preserve">
<g>
	<path fill="#FFFFFF" d="M107.43,20.763c-12.805,0-24.71,5.875-32.546,15.562c-7.832-9.689-19.735-15.562-32.546-15.562
		c-23.082,0-41.86,18.777-41.86,41.858c0,13.769,6.726,23.429,12.133,31.191c15.713,22.545,55.221,50.597,56.895,51.781
		c1.612,1.141,3.497,1.707,5.376,1.707c1.885,0,3.768-0.566,5.377-1.707c1.676-1.185,41.187-29.236,56.896-51.781
		c5.408-7.762,12.137-17.422,12.137-31.191C149.29,39.54,130.512,20.763,107.43,20.763z M129.511,88.486
		c-14.958,21.462-54.63,49.501-54.63,49.501s-39.667-28.039-54.628-49.501C14.734,80.56,9.793,73.028,9.793,62.622
		c0-17.97,14.569-32.543,32.544-32.543c13.284,0,24.688,7.97,29.747,19.38v-0.057h0.014c0.376,1.19,1.476,2.057,2.783,2.057
		c1.312,0,2.412-0.867,2.786-2.057h0.039c5.071-11.376,16.459-19.323,29.724-19.323c17.971,0,32.544,14.573,32.544,32.543
		C139.974,73.028,135.032,80.56,129.511,88.486z"/>
	<path fill="#FFFFFF" d="M85.795,56.472c0.453,0.234,0.939,0.346,1.417,0.346c1.126,0,2.213-0.618,2.765-1.69
		c0.113-0.22,0.219-0.44,0.322-0.674c3.111-6.982,10.041-11.492,17.658-11.492c5.24,0,10.149,2.071,13.821,5.827
		c1.199,1.229,3.168,1.251,4.392,0.053c1.229-1.201,1.251-3.166,0.052-4.392c-4.851-4.965-11.338-7.699-18.265-7.699
		c-10.067,0-19.225,5.958-23.33,15.17c-0.054,0.125-0.113,0.252-0.177,0.375C83.667,53.818,84.268,55.691,85.795,56.472z"/>
	<path fill="#FFFFFF" d="M130.4,59.188c-1.717,0-3.107,1.392-3.107,3.106c0,6.258-3.083,11.135-8.164,18.424
		c-9.882,14.18-32.969,32.545-44.248,41.088c-11.278-8.548-34.365-26.908-44.242-41.088c-5.082-7.289-8.165-12.164-8.165-18.424
		c0-10.659,8.674-19.333,19.335-19.333c7.634,0,14.571,4.523,17.668,11.511c0.108,0.248,0.225,0.488,0.347,0.724
		c0.795,1.522,2.673,2.112,4.19,1.317c1.521-0.79,2.111-2.67,1.317-4.187c-0.059-0.113-0.113-0.229-0.17-0.359
		C61.062,42.723,51.895,36.75,41.809,36.75c-14.085,0-25.545,11.46-25.545,25.545c0,8.041,3.844,14.183,9.28,21.976
		C36.12,99.453,59.829,118.3,73.02,128.183c0.554,0.413,1.208,0.617,1.861,0.617c0.657,0,1.312-0.204,1.863-0.617
		c13.189-9.883,36.897-28.725,47.479-43.912c5.436-7.798,9.281-13.938,9.281-21.976C133.505,60.58,132.114,59.188,130.4,59.188z"/>
</g>
</svg>
