<?xml version="1.0" encoding="utf-8"?>
<!-- Generator: Adobe Illustrator 16.0.4, SVG Export Plug-In . SVG Version: 6.00 Build 0)  -->
<!DOCTYPE svg PUBLIC "-//W3C//DTD SVG 1.1//EN" "http://www.w3.org/Graphics/SVG/1.1/DTD/svg11.dtd">
<svg version="1.1" id="Layer_1" xmlns="http://www.w3.org/2000/svg" xmlns:xlink="http://www.w3.org/1999/xlink" x="0px" y="0px"
	 width="256px" height="256px" viewBox="0 0 256 256" enable-background="new 0 0 256 256" xml:space="preserve">
<path fill="#1A96AA" d="M256,230.48c0,13.186-10.67,23.871-23.855,23.871H25.189c-13.178,0-23.863-10.686-23.863-23.871V23.526
	c0-13.178,10.685-23.863,23.863-23.863h206.955C245.33-0.337,256,10.348,256,23.526V230.48z"/>
<g>
	<path fill="#FFFFFF" d="M108.727,143.393h8.94v-34.87l-11.033,6.363l-1.37-10.953l17.96-11.436h7.973v50.896h8.778v9.504h-31.249
		V143.393z"/>
</g>
<g opacity="0.4">
	<path fill="#FFFFFF" d="M198.5,197.483H53.245V53.541H198.5V197.483z M66.717,184.012h118.311V67.013H66.717V184.012z"/>
</g>
<polygon fill="#FFFFFF" points="66.897,53.541 53.245,53.541 53.245,67.094 66.717,67.094 66.717,67.013 66.897,67.013 "/>
</svg>
