<?xml version="1.0" encoding="utf-8"?>
<!-- Generator: Adobe Illustrator 16.0.4, SVG Export Plug-In . SVG Version: 6.00 Build 0)  -->
<!DOCTYPE svg PUBLIC "-//W3C//DTD SVG 1.1//EN" "http://www.w3.org/Graphics/SVG/1.1/DTD/svg11.dtd">
<svg version="1.1" id="Layer_1" xmlns="http://www.w3.org/2000/svg" xmlns:xlink="http://www.w3.org/1999/xlink" x="0px" y="0px"
	 width="150px" height="150px" viewBox="0 0 150 150" enable-background="new 0 0 150 150" xml:space="preserve">
<g>
	<path fill="#F9F9FA" d="M135.17,29.126h-4.055v-7.711c0-5.176-4.195-9.372-9.371-9.372H90.713c-5.176,0-9.373,4.196-9.373,9.372
		v7.711H15.015c-8.055,0-14.607,6.552-14.607,14.606v67.945c0,8.054,6.553,14.604,14.607,14.604h27.138
		c7.638,9.829,19.557,16.168,32.94,16.168c13.382,0,25.302-6.339,32.94-16.168h27.137c8.052,0,14.604-6.55,14.604-14.604V43.732
		C149.774,35.678,143.222,29.126,135.17,29.126z M90.713,21.415h31.031v7.711H90.713V21.415z M75.093,133.079
		c-17.834,0-32.343-14.511-32.343-32.341c0-17.833,14.509-32.343,32.343-32.343c17.833,0,32.341,14.51,32.341,32.343
		C107.435,118.568,92.926,133.079,75.093,133.079z M135.17,116.908h-21.628c2.104-4.971,3.266-10.438,3.266-16.17
		c0-23.003-18.712-41.714-41.714-41.714c-23.001,0-41.715,18.711-41.715,41.714c0,5.732,1.165,11.199,3.266,16.17H15.015
		c-2.886,0-5.236-2.346-5.236-5.23V52.133h96.45c1.726,0,3.126-1.396,3.126-3.123c0-1.725-1.4-3.125-3.126-3.125H9.779v-2.154
		c0-2.888,2.35-5.235,5.236-5.235H135.17c2.886,0,5.232,2.348,5.232,5.235v2.154h-16.613c-1.728,0-3.126,1.399-3.126,3.125
		c0,1.727,1.398,3.123,3.126,3.123h16.613v59.544C140.402,114.562,138.056,116.908,135.17,116.908z"/>
	<path fill="#F9F9FA" d="M97.178,91.679c-0.654-1.594-2.482-2.353-4.074-1.705c-1.599,0.657-2.36,2.481-1.706,4.075
		c0.867,2.125,1.311,4.372,1.311,6.689c0,9.712-7.9,17.612-17.615,17.612s-17.618-7.9-17.618-17.612
		c0-9.715,7.903-17.615,17.618-17.615c2.377,0,4.683,0.466,6.854,1.382c1.587,0.674,3.424-0.072,4.095-1.664
		c0.671-1.591-0.073-3.422-1.664-4.094c-2.943-1.243-6.069-1.873-9.285-1.873c-13.159,0-23.863,10.703-23.863,23.864
		c0,13.158,10.704,23.861,23.863,23.861c13.156,0,23.861-10.703,23.861-23.861C98.954,97.604,98.356,94.555,97.178,91.679z"/>
	<circle fill="#F9F9FA" cx="75.093" cy="100.737" r="8.556"/>
</g>
</svg>
