<?xml version="1.0" encoding="utf-8"?>
<!-- Generator: Adobe Illustrator 18.1.0, SVG Export Plug-In . SVG Version: 6.00 Build 0)  -->
<svg version="1.1" id="Layer_1" xmlns="http://www.w3.org/2000/svg" xmlns:xlink="http://www.w3.org/1999/xlink" x="0px" y="0px"
	 viewBox="-306 240.8 86.5 21.3" enable-background="new -306 240.8 86.5 21.3" xml:space="preserve">
<path fill="#2DB6D0" d="M-302.1,247.1v8.4c0,1.4,1.2,2.6,2.6,2.6h8.4c1.4,0,2.6-1.2,2.6-2.6v-8.4c0-1.4-1.2-2.6-2.6-2.6h-8.4
	C-301,244.5-302.1,245.7-302.1,247.1z M-291.1,246.9c0.1,0,0.2,0.1,0.2,0.2v8.4c0,0.1-0.1,0.2-0.2,0.2h-8.4c-0.1,0-0.2-0.1-0.2-0.2
	v-8.4c0-0.1,0.1-0.2,0.2-0.2L-291.1,246.9L-291.1,246.9z"/>
<path fill="#2DB6D0" d="M-305.7,244.5v13.7c0,1.9,1.6,3.5,3.5,3.5h13.7c1.9,0,3.5-1.6,3.5-3.5v-13.7c0-1.9-1.6-3.5-3.5-3.5h-13.7
	C-304.2,240.9-305.7,242.5-305.7,244.5z M-288.5,243.4c0.6,0,1.1,0.5,1.1,1.1v13.7c0,0.6-0.5,1.1-1.1,1.1h-13.7
	c-0.6,0-1.1-0.5-1.1-1.1v-13.7c0-0.6,0.5-1.1,1.1-1.1H-288.5z"/>
<path fill="#2DB6D0" d="M-298.9,249.6v3.5c0,1,0.8,1.8,1.8,1.8h3.5c1,0,1.8-0.8,1.8-1.8v-3.5c0-1-0.8-1.8-1.8-1.8h-3.5
	C-298.1,247.8-298.9,248.6-298.9,249.6z M-294.2,250.2v2.3h-2.3v-2.3H-294.2z"/>
<path fill="#FFFFFF" d="M-294.6,250.2l1.3-2.3c-0.1,0-0.2,0-0.4,0h-3.5c-0.1,0-0.2,0-0.3,0l1.3,2.3H-294.6z"/>
<polygon fill="#FFFFFF" points="-299.4,244.5 -298,246.9 -292.7,246.9 -291.3,244.5 "/>
<polygon fill="#FFFFFF" points="-301.4,240.9 -300,243.4 -290.6,243.4 -289.2,240.9 "/>
<g enable-background="new    ">
	<path fill="#FFFFFF" d="M-275.7,257.9l-4.2-12.8h2.9l2.9,9h0l2.9-9h2.9l-4.3,12.8H-275.7z"/>
	<path fill="#FFFFFF" d="M-264.3,245v12.8h-2.8V245H-264.3z"/>
	<path fill="#FFFFFF" d="M-259.7,254.7c0.2,0.3,0.4,0.5,0.6,0.7c0.3,0.2,0.6,0.3,0.9,0.4c0.3,0.1,0.7,0.1,1.1,0.1
		c0.3,0,0.5,0,0.8-0.1c0.3,0,0.6-0.1,0.8-0.2c0.3-0.1,0.5-0.3,0.6-0.5c0.2-0.2,0.3-0.5,0.3-0.8c0-0.3-0.1-0.6-0.3-0.8
		c-0.2-0.2-0.5-0.4-0.9-0.5c-0.4-0.1-0.8-0.3-1.2-0.4c-0.5-0.1-0.9-0.2-1.4-0.4c-0.5-0.1-0.9-0.3-1.4-0.4c-0.5-0.2-0.9-0.4-1.2-0.7
		c-0.4-0.3-0.7-0.6-0.9-1c-0.2-0.4-0.3-0.9-0.3-1.5c0-0.7,0.1-1.2,0.4-1.7s0.6-0.9,1.1-1.2c0.5-0.3,1-0.6,1.5-0.7
		c0.6-0.2,1.1-0.2,1.7-0.2c0.7,0,1.3,0.1,1.9,0.2c0.6,0.1,1.2,0.4,1.6,0.7c0.5,0.3,0.9,0.8,1.1,1.3c0.3,0.5,0.4,1.2,0.4,1.9h-2.7
		c0-0.4-0.1-0.7-0.2-1c-0.1-0.3-0.3-0.4-0.5-0.6c-0.2-0.1-0.5-0.2-0.8-0.3c-0.3-0.1-0.6-0.1-1-0.1c-0.2,0-0.5,0-0.7,0.1
		s-0.4,0.1-0.6,0.3c-0.2,0.1-0.3,0.3-0.5,0.4c-0.1,0.2-0.2,0.4-0.2,0.7c0,0.3,0,0.5,0.1,0.6c0.1,0.2,0.3,0.3,0.6,0.4
		c0.3,0.1,0.7,0.3,1.2,0.4c0.5,0.1,1.1,0.3,2,0.5c0.2,0,0.6,0.1,1,0.3c0.4,0.1,0.8,0.3,1.3,0.6c0.4,0.3,0.8,0.6,1.1,1.1
		c0.3,0.5,0.5,1.1,0.5,1.8c0,0.6-0.1,1.1-0.3,1.6c-0.2,0.5-0.6,0.9-1,1.3c-0.4,0.4-1,0.6-1.7,0.9c-0.7,0.2-1.4,0.3-2.3,0.3
		c-0.7,0-1.4-0.1-2.1-0.3c-0.7-0.2-1.3-0.4-1.8-0.8c-0.5-0.4-0.9-0.8-1.2-1.4c-0.3-0.6-0.4-1.3-0.4-2h2.7
		C-259.9,254-259.8,254.4-259.7,254.7z"/>
	<path fill="#FFFFFF" d="M-247.4,245v12.8h-2.8V245H-247.4z"/>
	<path fill="#FFFFFF" d="M-245,248.8c0.3-0.8,0.7-1.5,1.2-2.1c0.5-0.6,1.2-1.1,2-1.4c0.8-0.3,1.7-0.5,2.7-0.5c1,0,1.9,0.2,2.7,0.5
		s1.4,0.8,2,1.4c0.5,0.6,1,1.3,1.2,2.1c0.3,0.8,0.4,1.7,0.4,2.7c0,0.9-0.1,1.8-0.4,2.6c-0.3,0.8-0.7,1.5-1.2,2.1s-1.2,1.1-2,1.4
		c-0.8,0.3-1.7,0.5-2.7,0.5c-1,0-1.9-0.2-2.7-0.5c-0.8-0.3-1.4-0.8-2-1.4c-0.5-0.6-1-1.3-1.2-2.1c-0.3-0.8-0.4-1.7-0.4-2.6
		C-245.4,250.6-245.3,249.7-245,248.8z M-242.4,253.1c0.1,0.5,0.3,1,0.6,1.4s0.6,0.7,1.1,1c0.4,0.2,1,0.4,1.6,0.4
		c0.6,0,1.2-0.1,1.6-0.4c0.4-0.2,0.8-0.6,1.1-1s0.5-0.9,0.6-1.4c0.1-0.5,0.2-1,0.2-1.6c0-0.6-0.1-1.1-0.2-1.6s-0.3-1-0.6-1.4
		c-0.3-0.4-0.6-0.7-1.1-1s-1-0.4-1.6-0.4c-0.6,0-1.2,0.1-1.6,0.4c-0.4,0.2-0.8,0.6-1.1,1c-0.3,0.4-0.5,0.9-0.6,1.4
		c-0.1,0.5-0.2,1.1-0.2,1.6C-242.6,252-242.6,252.6-242.4,253.1z"/>
	<path fill="#FFFFFF" d="M-228.1,245l5.4,8.6h0V245h2.6v12.8h-2.8l-5.3-8.6h0v8.6h-2.6V245H-228.1z"/>
</g>
</svg>
