<?xml version="1.0" encoding="utf-8"?>
<!-- Generator: Adobe Illustrator 16.0.0, SVG Export Plug-In . SVG Version: 6.00 Build 0)  -->
<!DOCTYPE svg PUBLIC "-//W3C//DTD SVG 1.1//EN" "http://www.w3.org/Graphics/SVG/1.1/DTD/svg11.dtd">
<svg version="1.1" id="Layer_1" xmlns="http://www.w3.org/2000/svg" xmlns:xlink="http://www.w3.org/1999/xlink" x="0px" y="0px"
	 width="86.5px" height="21.25px" viewBox="0 0 86.5 21.25" enable-background="new 0 0 86.5 21.25" xml:space="preserve">
<path fill="#2DB6D0" d="M3.857,6.383v8.412c0,1.428,1.162,2.59,2.591,2.59h8.41c1.429,0,2.591-1.162,2.591-2.59V6.383
	c0-1.428-1.162-2.59-2.591-2.59h-8.41C5.02,3.793,3.857,4.955,3.857,6.383z M14.858,6.148c0.131,0,0.236,0.105,0.236,0.234v8.412
	c0,0.129-0.105,0.233-0.236,0.233h-8.41c-0.131,0-0.236-0.104-0.236-0.233V6.383c0-0.129,0.105-0.234,0.236-0.234L14.858,6.148
	L14.858,6.148z"/>
<path fill="#2DB6D0" d="M0.259,3.717v13.744c0,1.941,1.58,3.521,3.523,3.521h13.742c1.943,0,3.523-1.58,3.523-3.521V3.717
	c0-1.941-1.58-3.521-3.523-3.521H3.782C1.839,0.195,0.259,1.775,0.259,3.717z M17.524,2.621c0.604,0,1.097,0.492,1.097,1.096v13.744
	c0,0.604-0.492,1.096-1.097,1.096H3.782c-0.604,0-1.097-0.492-1.097-1.096V3.717c0-0.604,0.492-1.096,1.097-1.096H17.524z"/>
<path fill="#2DB6D0" d="M7.148,8.848v3.482c0,0.973,0.792,1.764,1.764,1.764h3.482c0.973,0,1.764-0.791,1.764-1.764V8.848
	c0-0.973-0.791-1.764-1.764-1.764H8.912C7.94,7.084,7.148,7.875,7.148,8.848z M11.803,9.439v2.299H9.504V9.439H11.803z"/>
<path d="M11.417,9.439l1.337-2.314c-0.121-0.025-0.245-0.041-0.373-0.041H8.896c-0.117,0-0.231,0.013-0.343,0.035l1.34,2.32H11.417z
	"/>
<polygon points="6.632,3.793 7.991,6.148 13.315,6.148 14.676,3.793 "/>
<polygon points="4.555,0.195 5.955,2.621 15.352,2.621 16.753,0.195 "/>
<g enable-background="new    ">
	<path d="M30.316,17.121l-4.151-12.83h2.893l2.857,9.021h0.036l2.893-9.021h2.911l-4.259,12.83H30.316z"/>
	<path d="M41.672,4.291v12.83h-2.821V4.291H41.672z"/>
	<path d="M46.309,13.959c0.155,0.299,0.361,0.542,0.619,0.728s0.561,0.323,0.908,0.413s0.707,0.135,1.078,0.135
		c0.252,0,0.521-0.021,0.809-0.062s0.557-0.123,0.809-0.243c0.252-0.119,0.461-0.284,0.629-0.494c0.168-0.209,0.252-0.476,0.252-0.8
		c0-0.347-0.111-0.629-0.333-0.845c-0.222-0.215-0.513-0.395-0.872-0.539c-0.359-0.144-0.766-0.27-1.221-0.377
		c-0.456-0.107-0.917-0.228-1.385-0.359c-0.479-0.119-0.945-0.267-1.4-0.44c-0.456-0.173-0.863-0.397-1.223-0.674
		c-0.359-0.275-0.65-0.62-0.871-1.033c-0.223-0.413-0.333-0.913-0.333-1.5c0-0.659,0.142-1.231,0.423-1.716
		c0.281-0.485,0.649-0.89,1.105-1.214c0.455-0.323,0.97-0.562,1.545-0.719c0.574-0.155,1.15-0.233,1.725-0.233
		c0.671,0,1.314,0.075,1.932,0.225c0.617,0.15,1.165,0.393,1.645,0.728c0.479,0.336,0.859,0.765,1.141,1.285
		c0.281,0.521,0.422,1.153,0.422,1.896h-2.73c-0.024-0.383-0.105-0.7-0.242-0.952c-0.139-0.251-0.321-0.449-0.549-0.593
		s-0.488-0.245-0.781-0.306c-0.294-0.06-0.614-0.09-0.961-0.09c-0.229,0-0.456,0.024-0.684,0.072s-0.434,0.132-0.619,0.251
		c-0.187,0.12-0.34,0.27-0.459,0.449s-0.18,0.408-0.18,0.684c0,0.251,0.048,0.455,0.145,0.61c0.096,0.156,0.283,0.3,0.565,0.432
		c0.281,0.132,0.671,0.264,1.168,0.396s1.147,0.299,1.95,0.503c0.238,0.048,0.571,0.135,0.996,0.261
		c0.426,0.125,0.848,0.326,1.268,0.602c0.419,0.275,0.781,0.645,1.087,1.105s0.458,1.051,0.458,1.77
		c0,0.587-0.113,1.132-0.342,1.636c-0.227,0.503-0.565,0.938-1.015,1.303s-1.007,0.649-1.671,0.854
		c-0.665,0.203-1.436,0.305-2.309,0.305c-0.707,0-1.393-0.087-2.059-0.26c-0.664-0.174-1.252-0.446-1.76-0.818
		c-0.51-0.371-0.914-0.844-1.214-1.419c-0.299-0.575-0.443-1.258-0.431-2.049h2.731C46.074,13.294,46.152,13.659,46.309,13.959z"/>
	<path d="M58.635,4.291v12.83h-2.82V4.291H58.635z"/>
	<path d="M60.989,8.092c0.287-0.82,0.7-1.536,1.239-2.147s1.201-1.09,1.986-1.438c0.784-0.348,1.668-0.521,2.65-0.521
		c0.994,0,1.881,0.174,2.659,0.521s1.438,0.826,1.977,1.438s0.952,1.327,1.24,2.147c0.287,0.82,0.431,1.71,0.431,2.668
		c0,0.935-0.144,1.806-0.431,2.615c-0.288,0.809-0.701,1.512-1.24,2.111c-0.539,0.599-1.198,1.068-1.977,1.41
		s-1.665,0.512-2.659,0.512c-0.982,0-1.866-0.17-2.65-0.512c-0.785-0.342-1.447-0.812-1.986-1.41
		c-0.539-0.6-0.952-1.303-1.239-2.111c-0.288-0.81-0.432-1.681-0.432-2.615C60.558,9.802,60.701,8.912,60.989,8.092z M63.568,12.332
		c0.125,0.51,0.326,0.968,0.602,1.375s0.635,0.733,1.078,0.979c0.443,0.245,0.982,0.368,1.617,0.368s1.174-0.123,1.617-0.368
		c0.443-0.246,0.803-0.572,1.078-0.979s0.476-0.865,0.602-1.375c0.126-0.509,0.188-1.033,0.188-1.572
		c0-0.562-0.062-1.107-0.188-1.635s-0.326-0.997-0.602-1.411c-0.275-0.413-0.635-0.742-1.078-0.988
		C68.039,6.48,67.5,6.357,66.865,6.357s-1.174,0.123-1.617,0.368c-0.443,0.246-0.803,0.575-1.078,0.988
		c-0.275,0.414-0.477,0.884-0.602,1.411c-0.127,0.527-0.189,1.072-0.189,1.635C63.379,11.299,63.441,11.823,63.568,12.332z"/>
	<path d="M77.898,4.291l5.354,8.607h0.036V4.291h2.642v12.83h-2.821l-5.337-8.589h-0.036v8.589h-2.641V4.291H77.898z"/>
</g>
</svg>
