<?xml version="1.0" standalone="no"?>
<!DOCTYPE svg PUBLIC "-//W3C//DTD SVG 20010904//EN"
 "http://www.w3.org/TR/2001/REC-SVG-20010904/DTD/svg10.dtd">
<svg version="1.0" xmlns="http://www.w3.org/2000/svg"
 width="200.000000pt" height="263.000000pt" viewBox="0 0 200.000000 263.000000"
 preserveAspectRatio="xMidYMid meet">
<metadata>
Created by potrace 1.12, written by Peter Selinger 2001-2015
</metadata>
<g transform="translate(0.000000,263.000000) scale(0.100000,-0.100000)"
fill="#000000" stroke="none">
<path d="M1001 2606 c-19 -21 -20 -24 -6 -30 21 -8 35 1 35 22 0 14 2 14 9 3
15 -23 -12 -41 -51 -35 -29 5 -35 3 -35 -12 0 -11 5 -23 11 -27 7 -6 4 -7 -6
-3 -19 6 -23 2 -31 -34 -6 -24 -2 -26 46 -39 29 -8 62 -13 75 -13 18 0 20 -3
12 -13 -6 -8 -19 -11 -28 -8 -22 8 23 -28 66 -53 18 -10 35 -28 37 -39 2 -11
9 -49 15 -85 6 -36 14 -76 17 -90 6 -25 6 -25 -16 -6 -11 11 -21 16 -21 13 0
-4 -16 5 -36 18 -20 14 -44 25 -53 25 -9 0 2 -9 24 -19 47 -21 93 -71 101
-109 3 -15 9 -35 15 -44 5 -10 7 -18 4 -18 -3 0 -47 21 -97 48 -87 45 -94 47
-172 47 -114 0 -172 -33 -287 -161 l-35 -40 -12 77 c-7 42 -10 85 -6 95 9 31
-56 -47 -77 -91 -34 -73 -15 -159 45 -206 15 -12 26 -31 26 -44 0 -36 17 -39
24 -5 11 59 84 100 177 100 24 0 98 8 164 17 66 9 151 17 188 17 l69 1 39 -45
c31 -37 38 -41 39 -24 0 46 -25 141 -45 169 -33 46 -42 91 -43 200 -1 55 -7
125 -14 155 -7 30 -13 112 -13 183 l0 127 -66 0 c-56 0 -69 -3 -88 -24z"/>
<path d="M1325 1606 c0 -35 8 -74 17 -91 9 -16 23 -54 31 -83 14 -45 14 -56 2
-86 -8 -18 -21 -36 -29 -39 -18 -7 -17 -47 1 -47 19 0 16 -47 -7 -107 -13 -36
-17 -60 -11 -80 13 -46 5 -213 -14 -278 -12 -41 -14 -60 -6 -63 14 -5 14 -45
1 -93 -6 -20 -13 -77 -16 -125 -15 -252 -16 -256 -53 -281 -27 -18 -30 -23
-14 -23 47 0 80 74 89 201 6 95 30 268 38 276 2 2 7 -13 11 -34 14 -79 91
-163 148 -163 18 0 41 6 52 14 16 11 17 20 9 62 -4 27 -9 117 -9 199 -1 97 -7
178 -18 230 -9 44 -17 104 -17 133 0 29 -7 69 -16 90 -9 20 -35 89 -59 152
-24 63 -63 156 -87 206 l-45 91 2 -61z m189 -570 c8 -20 15 -57 14 -82 0 -25
2 -47 5 -51 4 -3 2 -14 -4 -24 -7 -15 -6 -19 5 -19 20 0 9 -30 -16 -48 -16
-11 -17 -17 -6 -29 10 -12 9 -17 -4 -24 -15 -9 -16 -13 -2 -50 19 -55 19 -109
-1 -109 -30 0 -66 116 -65 212 0 16 -7 45 -16 65 -18 45 -12 108 17 162 10 20
19 44 19 55 0 19 1 19 19 -1 11 -12 27 -37 35 -57z"/>
<path d="M1036 770 c-13 -67 -25 -105 -37 -116 -23 -21 -25 -38 -3 -30 13 5
15 2 10 -16 -4 -13 -10 -46 -15 -74 -9 -60 -35 -106 -58 -102 -9 2 -18 -3 -21
-10 -2 -9 3 -12 14 -10 12 2 19 -3 19 -12 0 -8 4 -18 9 -22 22 -16 -45 -20
-69 -4 -21 14 -24 14 -19 1 16 -41 43 -86 71 -115 40 -43 77 -43 115 -1 31 34
34 60 17 131 -7 26 -11 135 -10 263 1 119 0 217 -2 217 -2 0 -11 -45 -21 -100z"/>
<path d="M779 708 c-17 -33 -27 -37 -66 -26 -61 17 -66 9 -37 -47 33 -63 90
-122 128 -131 24 -6 27 -4 22 12 -3 11 -10 62 -16 113 -6 52 -12 97 -15 99 -2
2 -9 -7 -16 -20z"/>
</g>
</svg>
