<?xml version="1.0" encoding="utf-8"?>
<!-- Generator: Adobe Illustrator 16.0.4, SVG Export Plug-In . SVG Version: 6.00 Build 0)  -->
<!DOCTYPE svg PUBLIC "-//W3C//DTD SVG 1.1//EN" "http://www.w3.org/Graphics/SVG/1.1/DTD/svg11.dtd">
<svg version="1.1" id="Layer_1" xmlns="http://www.w3.org/2000/svg" xmlns:xlink="http://www.w3.org/1999/xlink" x="0px" y="0px"
	 width="160px" height="160px" viewBox="0 0 160 160" enable-background="new 0 0 160 160" xml:space="preserve">
<g>
	<path fill="#9B9A9A" d="M133.513,27.603c-9.716-9.714-22.632-15.063-36.372-15.063s-26.657,5.349-36.373,15.065
		c-9.715,9.714-15.065,22.632-15.065,36.372c0,9.307,2.461,18.233,7.066,26.046L13.511,129.28c-0.797,0.799-1.246,1.882-1.246,3.009
		c0,1.128,0.449,2.21,1.246,3.01l12.369,12.368c0.797,0.8,1.879,1.249,3.009,1.249s2.212-0.449,3.009-1.249l39.273-39.274
		c7.795,4.573,16.692,7.021,25.97,7.021c13.74,0,26.656-5.352,36.372-15.065s15.065-22.632,15.065-36.371
		C148.578,50.236,143.229,37.319,133.513,27.603z M28.889,138.641l-6.351-6.352l35.228-35.226c0.953,1.128,1.948,2.227,3.002,3.284
		c1.076,1.078,2.2,2.094,3.353,3.059L28.889,138.641z M127.494,94.33c-8.106,8.106-18.888,12.572-30.354,12.572
		s-22.247-4.466-30.354-12.572c-8.107-8.107-12.571-18.888-12.571-30.354s4.464-22.247,12.571-30.354
		c8.107-8.107,18.889-12.571,30.354-12.571s22.247,4.464,30.354,12.571c8.107,8.107,12.571,18.889,12.571,30.354
		S135.602,86.223,127.494,94.33z"/>
	<path fill="#9B9A9A" d="M130.839,69.063c-1.525-0.36-3.055,0.583-3.415,2.108c-1.325,5.601-4.188,10.723-8.277,14.81
		c-5.879,5.88-13.695,9.118-22.006,9.118c-8.313,0-16.129-3.238-22.008-9.118c-1.036-1.032-2.006-2.152-2.888-3.321
		c-0.941-1.253-2.718-1.506-3.973-0.562c-1.25,0.943-1.504,2.723-0.56,3.975c1.041,1.382,2.187,2.701,3.408,3.921
		c6.95,6.954,16.19,10.779,26.02,10.779c9.828,0,19.069-3.825,26.018-10.777c4.834-4.834,8.22-10.892,9.786-17.518
		C133.307,70.953,132.362,69.424,130.839,69.063z"/>
	<path fill="#9B9A9A" d="M67.479,73.424c-3.538-11.142-0.605-23.195,7.654-31.455c5.879-5.876,13.694-9.114,22.008-9.114
		c8.311,0,16.127,3.238,22.006,9.116c3.968,3.966,6.789,8.922,8.161,14.332c0.385,1.517,1.925,2.438,3.445,2.054
		c1.52-0.385,2.439-1.929,2.055-3.448c-1.621-6.398-4.957-12.262-9.649-16.951c-6.948-6.949-16.189-10.777-26.018-10.777
		c-9.83,0-19.07,3.828-26.02,10.777c-9.764,9.766-13.232,24.014-9.05,37.185c0.385,1.208,1.5,1.979,2.703,1.979
		c0.285,0,0.574-0.043,0.862-0.134C67.127,76.512,67.954,74.917,67.479,73.424z"/>
	<path fill="#9B9A9A" d="M102.782,39.599c-1.528-0.356-3.049,0.599-3.402,2.126c-0.353,1.528,0.601,3.051,2.126,3.402
		c3.523,0.812,6.742,2.599,9.314,5.169c0.554,0.554,1.279,0.831,2.006,0.831c0.725,0,1.452-0.277,2.006-0.831
		c1.107-1.109,1.107-2.905,0-4.013C111.507,42.961,107.341,40.648,102.782,39.599z"/>
	<path fill="#9B9A9A" d="M116.389,62.052c0.144,1.465,1.378,2.56,2.822,2.56c0.091,0,0.187-0.004,0.278-0.015
		c1.561-0.154,2.701-1.542,2.547-3.102c-0.189-1.907-0.597-3.797-1.215-5.612c-0.506-1.483-2.114-2.275-3.601-1.771
		c-1.485,0.505-2.276,2.116-1.772,3.599C115.927,59.118,116.243,60.577,116.389,62.052z"/>
</g>
</svg>
